<svg id="Capa_1" enable-background="new 0 0 512 512" height="512" viewBox="0 0 512 512" width="512" xmlns="http://www.w3.org/2000/svg"><g><path d="m512 256c0 24.05-3.31 47.32-9.52 69.38l-41.21 31.2c-121.41 91.93-289.13 91.92-410.54 0l-41.2-31.2c-4.64-16.49-7.67-33.66-8.9-51.32-.42-5.96-.63-11.99-.63-18.06 0-46.22 12.25-89.57 33.68-127 44.12-77.07 127.16-129 222.32-129s178.2 51.93 222.32 129c12.98 22.67 22.59 47.52 28.15 73.86 3.46 16.36 5.35 33.28 5.52 50.62.01.84.01 1.68.01 2.52z" fill="#92eaff"/><g><path d="m512 256c0 16.35-1.53 32.33-4.46 47.82-.87 4.6-1.86 9.16-2.98 13.67-.24 1-.5 2.01-.76 3.01-.42 1.63-.86 3.26-1.32 4.88l-41.21 31.2c-121.41 91.93-289.13 91.92-410.54 0l-41.2-31.2c-.28-.95-.54-1.9-.79-2.85-.19-.68-.36-1.35-.54-2.03-5.35-20.61-8.2-42.22-8.2-64.5 0-46.22 12.25-89.57 33.68-127 21.61 37.75 52.56 69.47 89.7 92 17.37 10.54 36.08 19.08 55.83 25.27 14.47 4.55 29.49 7.84 44.94 9.76 10.43 1.3 21.06 1.97 31.85 1.97 3.3 0 6.6-.06 9.88-.19 8.98-.34 17.85-1.15 26.57-2.4 2.93-.41 5.85-.88 8.75-1.4 6.03-1.07 11.98-2.35 17.85-3.84 17.14-4.34 33.6-10.41 49.17-18.02 6-2.93 11.87-6.09 17.59-9.46 4.63-2.73 9.16-5.6 13.6-8.61 32.36-21.92 59.42-51.05 78.91-85.08 21.43 37.43 33.68 80.78 33.68 127z" fill="#63dbfa"/></g><g><g><path d="m507.54 303.82c-.87 4.6-1.86 9.16-2.98 13.67-.24 1-.5 2.01-.76 3.01-.42 1.63-.86 3.26-1.32 4.88l-170.66 30.43-169.98-.82s53.72-50.65 104.04-97.18c27.31-25.25 53.61-49.29 69.79-63.36 7.61-6.61 16.49-13.62 25.83-13.1 9.59.53 16.98 7.67 22.78 14.61 5.05 6.04 10.09 12.08 15.13 18.12 3.76 4.51 7.53 9.01 11.29 13.52 4.6 5.51 8.16 12.03 13.99 16.41 2.7 2.01 6.09 3.82 9.87 3.26 4.86-.71 7.96-5.67 12.77-7.02 7-1.95 12.6 3.67 16.68 8.82 14.51 18.25 29.02 36.5 43.53 54.75z" fill="#43af3e"/><path d="m504.56 317.49c-.24 1-.5 2.01-.76 3.01-1.8 6.93-3.89 13.76-6.25 20.45-1.46 4.14-3.01 8.23-4.67 12.27-.46 1.13-.93 2.25-1.41 3.37l-308.05-1.49c20.62-18.77 41.24-37.53 61.86-56.29 9.18-8.36 28.51-26.25 47.17-43.4 19.07-17.51 37.45-34.25 43.59-39.21 11.72-9.48 24.61-16.52 35.75-8.21 2.94 2.2 8.04 7.78 14.02 14.7 14.97 17.35 35.39 43.09 40.84 44.93 7.82 2.62 15.09-9.08 23.13-6.98 4.02 1.05 29.92 28.31 54.78 56.85z" fill="#00a23e"/><path d="m449.84 333.8-85.58 13.7h-216.52l-138.21-22.12c-.28-.95-.54-1.9-.79-2.85 33-30.12 86.69-78.83 107.31-95.9 2.33-1.93 4.77-3.89 7.33-5.63 5.55-3.8 11.63-6.59 18.13-5.78 8.13 1.02 11.75 10.56 19.24 11.52 9.19 1.17 17.77-10.67 22.3-16.91 11.52-15.85 23.03-31.69 34.54-47.54 7.28-10.01 16.34-21.01 28.71-21.3 3.45-.08 6.68.68 9.7 2.04 8.07 3.62 14.7 11.46 20.29 18.77 8.22 10.74 36.56 50.84 44.02 59.03 6.27 6.88 15.1 12.01 24.4 11.67 5.9-.21 11.67-2.59 17.54-1.99 2.11.22 4.1.79 5.97 1.64 6.28 2.82 11.32 8.68 15.78 14.21 11.04 13.68 46.03 61.33 65.84 87.44z" fill="#7e7f92"/><path d="m460.44 347.5h-204.44v-204.47c8.07 3.62 14.7 11.46 20.29 18.77 8.22 10.74 36.56 50.84 44.02 59.03 6.27 6.88 15.1 12.01 24.4 11.67 5.9-.21 11.67-2.59 17.54-1.99 9.18.93 15.96 8.67 21.75 15.85 13.52 16.75 62.92 84.39 76.44 101.14z" fill="#6e6f83"/><path d="m425.05 337.77-69.98 11.2c-65.63 10.5-132.51 10.5-198.14 0l-118.67-18.99c15.33-15.32 30.66-30.64 45.99-45.95 12.26-12.26 24.54-24.5 36.79-36.76 7.29-7.29 16-9.74 26.06-9.14 12.26.73 20.13 13.16 32.11 8.14.8-.33 1.61-.74 2.45-1.24 13.29-7.91 22.15-21.67 30.9-34 8.06-11.37 23.01-27.8 30.04-29.64 5-1.31 9.16-1.6 13.4-.16 5.61 1.91 11.36 6.85 19.4 16.48 9.36 11.21 17.52 21.27 26.69 32.63 7.33 9.09 12.66 15.45 16.96 19.83 6.25 6.37 10.29 8.53 15.09 8.74 5.19.22 10.11-2.85 15.31-2.79 11.83.12 20.72 10.38 27.93 19.74 15.89 20.64 31.78 41.27 47.67 61.91z" fill="#6e6f83"/><path d="m425.05 337.77-69.98 11.2c-32.81 5.25-65.94 7.87-99.07 7.87v-175.61c5.61 1.91 11.36 6.85 19.4 16.48 9.36 11.21 17.52 21.27 26.69 32.63 18 22.31 23.96 28.22 32.05 28.57 5.19.22 10.11-2.85 15.31-2.79 11.83.12 20.72 10.38 27.93 19.74 15.89 20.64 31.78 41.27 47.67 61.91z" fill="#605f74"/><path d="m424.72 378.96h-345c-15.74-7.34-31.13-15.72-46.06-25.14 26.18-25.48 65.88-63.76 87.27-82.73 7.75-6.87 16.45-14.13 26.81-14.29 11.58-.18 21.09 8.48 31.22 14.11 18.58 10.31 32.3-1.13 45.19-14.88 10.44-11.13 20.34-23.77 31.85-27.65 4.18-1.41 8.58-1.66 13.29-.26 8.72 2.6 15.5 9.31 21.9 15.77 3.33 3.37 6.67 6.75 10.01 10.12 41.17 41.66 82.34 83.3 123.52 124.95z" fill="#b6e337"/><path d="m424.72 378.96h-168.72v-150.58c4.18-1.41 8.58-1.66 13.29-.26 8.72 2.6 15.5 9.31 21.9 15.77 44.51 45.03 89.02 90.05 133.53 135.07z" fill="#6cdc2d"/><path d="m331.13 345.62h-237.62s23.01-26.91 31.84-34.31c8.83-7.39 19.98-12.66 31.49-12.21 8.9.36 17.3 4.05 26.06 5.64 17.15 3.1 35.64-2.46 48.24-14.5 7.51-7.17 14.32-17.13 24.69-17.66.06 0 .11-.01.17 0 9.3-.4 16.83 7.19 23.02 14.18 10.07 11.38 20.15 22.76 30.22 34.13 7.3 8.24 14.59 16.49 21.89 24.73z" fill="#6cdc2d"/><path d="m331.13 345.62h-75.13v-73.04c9.3-.4 16.83 7.19 23.02 14.18 10.07 11.38 20.15 22.76 30.22 34.13 7.3 8.24 14.59 16.49 21.89 24.73z" fill="#5dbf1d"/><path d="m502.48 325.38c-1.47 5.26-3.12 10.45-4.92 15.57 0 .01 0 .01-.01.02v-.02c-144.25 102.49-337.48 102.79-482.05.75l-1.05-.74c-1.8-5.12-3.45-10.32-4.92-15.58z" fill="#ffa87a"/><path d="m502.48 325.38c-1.47 5.26-3.12 10.45-4.92 15.57 0 .01 0 .01-.01.02v-.02c-72.31 51.38-156.92 77.07-241.55 77.07v-92.64z" fill="#f99568"/></g><g><path d="m497.55 340.95c-5.57 15.87-12.67 31.03-21.13 45.3-44.57 75.28-126.6 125.75-220.42 125.75-93.43 0-175.17-50.05-219.86-124.8-8.7-14.54-16-30.02-21.7-46.25z" fill="#fff"/></g><path d="m497.56 340.95c-2.86 8.16-6.13 16.12-9.78 23.87-10.11 21.5-23.13 41.37-38.54 59.09-1.36 1.56-2.73 3.11-4.13 4.64-3.98 4.36-8.1 8.57-12.37 12.64-45.78 43.7-107.73 70.6-175.95 70.81h-.79v-171.05z" fill="#dff7fd"/><path d="m492.88 353.22c-1.97 4.82-4.1 9.57-6.37 14.23-.29.63-.6 1.26-.91 1.88h-229.6s92.51-94.1 99.41-99.02c6.89-4.92 16.06-5.59 21.85 1.56 14.78 18.22 26.22 42.31 42.8 57.27 3.96 3.57 9.54-1.03 13.48-4.64s7.81-8.05 12.51-8.79c5.57-.86 10.75 3.67 15.39 8.02 10.48 9.84 20.96 19.67 31.44 29.49z" fill="#7e7f92"/><path d="m486.51 367.45c-.29.63-.6 1.26-.91 1.88h-191c23.65-27.56 62.88-72.03 69.83-72.03 10.07 0 30.39 40.45 48.42 47.15 18.04 6.7 28.05-20.32 38.14-11.14 7.77 7.07 22.65 21.53 35.52 34.14z" fill="#6e6f83"/><path d="m487.25 365.91c-.53 1.15-1.09 2.29-1.65 3.42-.4.82-.81 1.64-1.24 2.45l-161.57-5.88c9.3-10.63 18.61-21.27 27.92-31.91 4.87-5.56 10.43-11.47 17.02-11.35 7.39.13 13.11 7.69 18.56 13.95s13.22 11.97 19.85 7.86c10.63-6.59 17.79-21.07 29.58-19.57 6.68.85 12.47 5.91 17.92 10.81 11.2 10.07 22.4 20.15 33.61 30.22z" fill="#43af3e"/><path d="m491.91 355.57c-1.32 3.12-2.69 6.2-4.13 9.25-.05.107-.101.214-.151.321-8.842 18.723-27.834 30.539-48.539 30.539h-183.09v-30.86s103.97-17.71 235.91-9.25z" fill="#ed784a"/><path d="m487.78 364.82c-10.11 21.5-23.13 41.37-38.54 59.09-1.36 1.56-2.73 3.11-4.13 4.64-3.98 4.36-8.1 8.57-12.37 12.64-45.78 43.7-107.73 70.6-175.95 70.81h-.79c-66.62 0-127.3-25.45-172.85-67.17-5.66-5.18-11.08-10.61-16.26-16.28-14.46-15.84-26.96-33.5-37.1-52.61-.6-1.13-1.19-2.27-1.77-3.41-1.3-2.54-2.57-5.11-3.79-7.71z" fill="#dff7fd"/><path d="m487.78 364.82c-10.11 21.5-23.13 41.37-38.54 59.09-1.36 1.56-2.73 3.11-4.13 4.64-3.98 4.36-8.1 8.57-12.37 12.64-45.78 43.7-107.73 70.6-175.95 70.81h-.79v-147.18z" fill="#c5f2f9"/><path d="m449.24 423.91c-1.36 1.56-2.73 3.11-4.13 4.64-3.98 4.36-8.1 8.57-12.37 12.64-45.78 43.7-107.73 70.6-175.95 70.81h-.79c-66.62 0-127.3-25.45-172.85-67.17-5.66-5.18-11.08-10.61-16.26-16.28-14.46-15.84-26.96-33.5-37.1-52.61-.6-1.13-1.19-2.27-1.77-3.41l227.98 27.81z" fill="#92eaff"/><path d="m449.24 423.91c-1.36 1.56-2.73 3.11-4.13 4.64-3.98 4.36-8.1 8.57-12.37 12.64-45.78 43.7-107.73 70.6-175.95 70.81h-.79v-111.66z" fill="#63dbfa"/><path d="m432.74 441.19c-45.78 43.7-107.73 70.6-175.95 70.81h-.79c-66.62 0-127.3-25.45-172.85-67.17l172.85-1.8z" fill="#63dbfa"/><path d="m432.74 441.19c-45.78 43.7-107.73 70.6-175.95 70.81h-.79v-68.97z" fill="#3dcaea"/></g><g><path d="m154.525 166.997c0-.067.005-.132.005-.199 0-12.171-9.866-22.037-22.037-22.037-2.891 0-5.65.563-8.18 1.575-4.887-8.754-14.237-14.678-24.975-14.678-13.944 0-25.551 9.986-28.073 23.196-.752-.108-1.52-.167-2.302-.167-7.582 0-13.934 5.248-15.631 12.309h101.193z" fill="#fff"/><path d="m133.023 166.997c0-.038.003-.076.003-.114 0-6.998-5.673-12.672-12.672-12.672-1.663 0-3.249.323-4.704.906-2.81-5.034-8.186-8.44-14.361-8.44-8.018 0-14.692 5.742-16.143 13.338-.432-.062-.874-.096-1.323-.096-4.36 0-8.012 3.018-8.989 7.078z" fill="#dff7fd"/></g><g><path d="m437.653 149.328c0-.054.004-.108.004-.162 0-9.955-8.07-18.025-18.025-18.025-2.365 0-4.621.46-6.69 1.288-3.997-7.16-11.645-12.005-20.428-12.005-11.406 0-20.899 8.168-22.962 18.973-.615-.088-1.243-.136-1.883-.136-6.201 0-11.397 4.293-12.786 10.068h82.77z" fill="#fff"/><path d="m420.066 149.328c0-.031.002-.062.002-.093 0-5.724-4.64-10.364-10.365-10.364-1.36 0-2.657.265-3.847.741-2.298-4.118-6.696-6.904-11.746-6.904-6.559 0-12.017 4.697-13.204 10.91-.354-.051-.715-.078-1.083-.078-3.566 0-6.553 2.468-7.352 5.789h47.595z" fill="#dff7fd"/></g><g><path d="m302.393 90.757c.001-.099.007-.197.007-.296 0-18.14-14.706-32.846-32.846-32.846-4.31 0-8.421.838-12.192 2.347-7.284-13.049-21.22-21.878-37.225-21.878-20.785 0-38.084 14.885-41.844 34.574-1.121-.161-2.266-.248-3.431-.248-11.3 0-20.768 7.823-23.299 18.347z" fill="#fff"/><path d="m270.345 90.757c0-.057.004-.113.004-.17 0-10.431-8.456-18.887-18.887-18.887-2.478 0-4.843.482-7.011 1.35-4.188-7.503-12.202-12.58-21.406-12.58-11.952 0-21.899 8.559-24.061 19.881-.645-.092-1.303-.143-1.973-.143-6.498 0-11.942 4.498-13.398 10.55h86.732z" fill="#dff7fd"/></g><path d="m450.1 370.3h-.35c.08-.04.17-.08.25-.13.03.04.07.09.1.13z" fill="#ffa87a"/></g></svg>