<?xml version="1.0"?>
<svg xmlns="http://www.w3.org/2000/svg" xmlns:xlink="http://www.w3.org/1999/xlink" xmlns:svgjs="http://svgjs.com/svgjs" version="1.1" width="512" height="512" x="0" y="0" viewBox="0 0 512 512" style="enable-background:new 0 0 512 512" xml:space="preserve" class=""><g>
<path xmlns="http://www.w3.org/2000/svg" style="" d="M512,256c0,66.163-25.098,126.464-66.309,171.896c-30.448,33.593-69.716,59.068-114.134,72.767  C307.681,508.04,282.3,512,256,512C130.487,512,26.081,421.679,4.221,302.487C1.442,287.41,0,271.872,0,256  C0,114.615,114.615,0,256,0c138.167,0,250.775,109.464,255.822,246.397C511.937,249.584,512,252.782,512,256z" fill="#73d4ff" data-original="#73d4ff" class=""/>
<path xmlns="http://www.w3.org/2000/svg" style="" d="M512,256c0,66.163-25.098,126.464-66.309,171.896c-30.448,33.593-69.716,59.068-114.134,72.767  l-115.19-264.485L358.985,93.56l152.837,152.837C511.937,249.584,512,252.782,512,256z" fill="#b59350" data-original="#36539c" class=""/>
<path xmlns="http://www.w3.org/2000/svg" style="" d="M445.691,427.896c-22.162,24.461-49.006,44.607-79.109,59.037  c-15.235,7.325-31.316,13.176-48.044,17.366C298.527,509.336,277.577,512,256,512c-35.046,0-68.451-7.043-98.868-19.79  c-32.705-13.709-61.962-34.001-86.1-59.235c-33.823-35.338-57.616-80.353-66.811-130.487l158.03-158.03L445.691,427.896z" fill="#d7b36d" data-original="#4e62b1" class=""/>
<g xmlns="http://www.w3.org/2000/svg">
	<path style="" d="M305.347,92.511c1.071,0,2.121,0.086,3.146,0.248c4.159-11.31,15.027-19.379,27.78-19.379   c12.75,0,23.615,8.065,27.777,19.369c9.589,1.488,16.929,9.779,16.929,19.786h-95.656   C285.322,101.476,294.288,92.511,305.347,92.511z" fill="#c2eeff" data-original="#c2eeff"/>
	<path style="" d="M227.043,147.114c0.53,0,1.049,0.043,1.557,0.122c2.057-5.595,7.433-9.586,13.743-9.586   c6.307,0,11.682,3.989,13.74,9.582c4.744,0.737,8.375,4.838,8.375,9.788h-47.32C217.137,151.55,221.573,147.114,227.043,147.114z" fill="#c2eeff" data-original="#c2eeff"/>
	<path style="" d="M437.721,135.938c0.53,0,1.049,0.043,1.557,0.122c2.057-5.595,7.433-9.586,13.743-9.586   c6.307,0,11.682,3.989,13.74,9.582c4.744,0.737,8.375,4.838,8.375,9.788h-47.319C427.816,140.373,432.25,135.938,437.721,135.938z" fill="#c2eeff" data-original="#c2eeff"/>
</g>
<g xmlns="http://www.w3.org/2000/svg">
	<polygon style="" points="91.724,214.985 50.192,256.517 116.057,239.317 128.596,325.517 175.614,239.317    272.784,303.575 248.491,230.697 162.252,144.457  " fill="#f4f4f4" data-original="#f4f4f4" class=""/>
	<polygon style="" points="358.985,93.56 263.38,189.165 321.37,168.791 349.58,214.241 368.387,164.089    437.347,233.049 418.54,175.059 463.208,197.784  " fill="#f4f4f4" data-original="#f4f4f4" class=""/>
</g>
<path xmlns="http://www.w3.org/2000/svg" style="" d="M66.469,130.779c1.79,0,3.546,0.144,5.26,0.415c6.953-18.908,25.121-32.396,46.442-32.396  c21.314,0,39.478,13.481,46.435,32.381c16.031,2.488,28.301,16.348,28.301,33.077H32.992  C32.992,145.767,47.98,130.779,66.469,130.779z" fill="#c2eeff" data-original="#c2eeff"/>
<g xmlns="http://www.w3.org/2000/svg">
	<path style="" d="M366.582,486.933c-15.235,7.325-31.316,13.176-48.044,17.366l-79.454-93.362l-25.851,25.851   l-15.673-78.357l152.022,48.588l-36.049,14.106L366.582,486.933z" fill="#b59350" data-original="#36539c" class=""/>
	<path style="" d="M157.132,492.21c-32.705-13.709-61.962-34.001-86.1-59.235l37.188-66.706l18.808,79.924   l22.727-22.716L157.132,492.21z" fill="#b59350" data-original="#36539c" class=""/>
</g>
<polygon xmlns="http://www.w3.org/2000/svg" style="" points="288.457,234.615 320.586,202.487 320.586,247.154 341.744,247.154 351.147,306.71 " fill="#d7b36d" data-original="#4e62b1" class=""/>
<polygon xmlns="http://www.w3.org/2000/svg" style="" points="192.854,289.47 206.959,333.354 255.544,341.189 " fill="#b59350" data-original="#36539c" class=""/>
<g xmlns="http://www.w3.org/2000/svg">
</g>
<g xmlns="http://www.w3.org/2000/svg">
</g>
<g xmlns="http://www.w3.org/2000/svg">
</g>
<g xmlns="http://www.w3.org/2000/svg">
</g>
<g xmlns="http://www.w3.org/2000/svg">
</g>
<g xmlns="http://www.w3.org/2000/svg">
</g>
<g xmlns="http://www.w3.org/2000/svg">
</g>
<g xmlns="http://www.w3.org/2000/svg">
</g>
<g xmlns="http://www.w3.org/2000/svg">
</g>
<g xmlns="http://www.w3.org/2000/svg">
</g>
<g xmlns="http://www.w3.org/2000/svg">
</g>
<g xmlns="http://www.w3.org/2000/svg">
</g>
<g xmlns="http://www.w3.org/2000/svg">
</g>
<g xmlns="http://www.w3.org/2000/svg">
</g>
<g xmlns="http://www.w3.org/2000/svg">
</g>
</g></svg>
