<?xml version="1.0" encoding="iso-8859-1"?>
<!-- Generator: Adobe Illustrator 19.0.0, SVG Export Plug-In . SVG Version: 6.00 Build 0)  -->
<svg version="1.1" id="Layer_1" xmlns="http://www.w3.org/2000/svg" xmlns:xlink="http://www.w3.org/1999/xlink" x="0px" y="0px"
	 viewBox="0 0 512 512" style="enable-background:new 0 0 512 512;" xml:space="preserve">
<circle style="fill:#79C9DB;" cx="256" cy="256" r="256"/>
<path style="fill:#99DBFF;" d="M256,512C114.615,512,0,397.385,0,256S114.615,0,256,0V512z"/>
<path style="fill:#39536F;" d="M0.512,240C0.186,245.293,0,250.624,0,256c0,141.385,114.615,256,256,256s256-114.615,256-256
	c0-5.376-0.186-10.707-0.512-16H0.512z"/>
<path style="fill:#4D5CAE;" d="M0.512,240C0.186,245.293,0,250.624,0,256c0,141.385,114.615,256,256,256V240H0.512z"/>
<path style="fill:#FFFFFF;" d="M466.048,241.921l-34.273-13.389l-96.746-96.746c-2.743-2.742-6.423-4.297-10.34-4.26
	c-3.878,0.015-7.588,1.577-10.308,4.339l-69.708,70.788l-63.983-42.385c-5.491-3.639-12.743-3.132-17.674,1.235l-60.134,53.236
	l-47.6,28.215c-5.636,3.341-8.342,10.038-6.611,16.358c1.732,6.32,7.476,10.7,14.029,10.7h398.057
	c6.995,0,12.999-4.979,14.294-11.853C476.345,251.289,472.564,244.467,466.048,241.921z"/>
<path style="fill:#D0D0D0;" d="M466.048,241.921l-34.273-13.389l-96.746-96.746c-2.743-2.742-6.423-4.297-10.34-4.26
	c-3.878,0.015-7.588,1.577-10.308,4.339l-58.327,59.232L256,270.016h204.756c6.995,0,12.999-4.979,14.294-11.853
	C476.345,251.289,472.564,244.467,466.048,241.921z"/>
<path style="fill:#637492;" d="M466.048,241.921l-34.273-13.389l-58.908-58.908l-44.14,37.846l-40.543-49.004l-43.514,44.189
	l-45.58-30.193C186.129,184.193,160,210.38,160,210.38s-14.97-17.235-22.572-26.223l-34.548,30.585l-47.6,28.215
	c-5.636,3.341-8.342,10.038-6.611,16.358c1.732,6.32,7.476,10.7,14.029,10.7h398.058c6.995,0,12.999-4.979,14.294-11.853
	C476.345,251.289,472.564,244.467,466.048,241.921z"/>
<path style="fill:#84A2D1;" d="M256.052,191.098l-11.38,11.556l-45.58-30.193C186.129,184.193,160,210.38,160,210.38
	s-14.97-17.235-22.572-26.223l-34.548,30.585l-47.6,28.215c-5.636,3.341-8.342,10.038-6.611,16.358
	c1.732,6.32,7.476,10.7,14.029,10.7H256L256.052,191.098z"/>
<path style="fill:#D0D0D0;" d="M284.077,376.727h-9.593l-29.919-41.907c-3.76-5.265-10.547-7.417-16.653-5.273l-33.932,11.904
	l-25.007-18.506c-3.124-2.313-7.049-3.279-10.884-2.681c-3.841,0.596-7.283,2.705-9.558,5.856l-36.55,50.607h-5.319
	c-8.032,0-14.545,6.512-14.545,14.545s6.513,14.545,14.545,14.545h12.705c0.013,0,0.025,0.001,0.038,0.001
	c0.009,0,0.016-0.001,0.025-0.001h164.646c8.032,0,14.545-6.512,14.545-14.545S292.109,376.727,284.077,376.727z"/>
<path style="fill:#FFFFFF;" d="M256.047,350.903l-11.482-16.083c-3.76-5.265-10.547-7.417-16.653-5.273l-33.932,11.904
	l-25.007-18.506c-3.124-2.313-7.049-3.279-10.884-2.681c-3.841,0.596-7.283,2.705-9.558,5.856l-36.548,50.607h-5.319
	c-8.032,0-14.545,6.512-14.545,14.545s6.513,14.545,14.545,14.545h12.705c0.013,0,0.025,0.001,0.038,0.001
	c0.009,0,0.016-0.001,0.025-0.001h136.621L256.047,350.903z"/>
<path style="fill:#D0D0D0;" d="M341.904,298.637c-8.032,0-14.545,6.512-14.545,14.545s6.513,14.545,14.545,14.545h159.895
	c2.762-9.481,4.986-19.19,6.646-29.091H341.904z"/>
<path style="fill:#FFFFFF;" d="M87.843,313.183c0-8.033-6.513-14.545-14.545-14.545H3.555c1.66,9.901,3.884,19.61,6.646,29.091
	h63.095C81.329,327.728,87.843,321.216,87.843,313.183z"/>
<path style="fill:#D0D0D0;" d="M354.993,405.818h-26.18c-8.032,0-14.545-6.512-14.545-14.545s6.513-14.545,14.545-14.545h26.18
	c8.032,0,14.545,6.512,14.545,14.545S363.025,405.818,354.993,405.818z"/>
<g>
</g>
<g>
</g>
<g>
</g>
<g>
</g>
<g>
</g>
<g>
</g>
<g>
</g>
<g>
</g>
<g>
</g>
<g>
</g>
<g>
</g>
<g>
</g>
<g>
</g>
<g>
</g>
<g>
</g>
</svg>
