<svg xmlns="http://www.w3.org/2000/svg" height="512pt" version="1.1" viewBox="0 0 512 512" width="512pt">
<g id="surface1">
<path d="M 512 256 C 512 397.386719 397.386719 512 256 512 C 114.613281 512 0 397.386719 0 256 C 0 114.613281 114.613281 0 256 0 C 397.386719 0 512 114.613281 512 256 Z M 512 256 " style=" stroke:none;fill-rule:nonzero;fill:rgb(61.960784%,41.176471%,88.627451%);fill-opacity:1;" />
<path d="M 512 256 C 512 282.050781 508.109375 307.191406 500.871094 330.871094 C 495.839844 347.339844 489.199219 363.101562 481.121094 377.980469 C 472.871094 393.179688 463.121094 407.441406 452.070312 420.589844 C 451.488281 421.28125 450.910156 421.96875 450.320312 422.648438 C 403.378906 477.351562 333.730469 512 256 512 C 178.269531 512 108.621094 477.351562 61.691406 422.648438 C 61.101562 421.960938 60.511719 421.269531 59.941406 420.578125 C 48.878906 407.441406 39.128906 393.179688 30.890625 377.980469 C 27.601562 371.949219 24.558594 365.769531 21.769531 359.449219 C 7.769531 327.820312 0 292.820312 0 256 C 0 209.78125 12.25 166.429688 33.679688 129 C 77.800781 206.070312 160.839844 258 256 258 C 351.160156 258 434.210938 206.070312 478.320312 129 C 499.75 166.429688 512 209.78125 512 256 Z M 512 256 " style=" stroke:none;fill-rule:nonzero;fill:rgb(55.686275%,30.980392%,82.352941%);fill-opacity:1;" />
<path d="M 30.742188 377.703125 C 37.898438 390.921875 46.171875 403.441406 55.460938 415.128906 C 102.359375 474.148438 174.761719 512 256 512 C 337.238281 512 409.640625 474.148438 456.539062 415.128906 C 465.828125 403.441406 474.101562 390.921875 481.257812 377.703125 Z M 30.742188 377.703125 " style=" stroke:none;fill-rule:nonzero;fill:rgb(19.607843%,23.137255%,35.294118%);fill-opacity:1;" />
<path d="M 165.980469 421.980469 C 165.980469 471.699219 206.28125 512 256 512 C 256.722656 512 257.441406 511.988281 258.171875 511.96875 C 306.050781 510.851562 345.039062 471.710938 346 423.828125 C 346.570312 395.75 334.269531 370.519531 314.601562 353.628906 C 309.289062 349.078125 306.351562 342.351562 306.351562 335.359375 L 306.351562 123.851562 C 306.351562 109.941406 300.722656 97.359375 291.601562 88.25 C 282.492188 79.140625 269.902344 73.5 256 73.5 C 228.191406 73.5 205.652344 96.039062 205.652344 123.851562 L 205.652344 335.601562 C 205.652344 342.648438 202.472656 349.25 197.140625 353.859375 C 178.0625 370.371094 165.980469 394.761719 165.980469 421.980469 Z M 165.980469 421.980469 " style=" stroke:none;fill-rule:nonzero;fill:rgb(81.568627%,96.470588%,100%);fill-opacity:1;" />
<path d="M 165.980469 421.980469 C 165.980469 471.699219 206.28125 512 256 512 L 256 73.5 C 228.191406 73.5 205.652344 96.039062 205.652344 123.851562 L 205.652344 335.601562 C 205.652344 342.648438 202.472656 349.25 197.140625 353.859375 C 178.0625 370.371094 165.980469 394.761719 165.980469 421.980469 Z M 165.980469 421.980469 " style=" stroke:none;fill-rule:nonzero;fill:rgb(100%,100%,100%);fill-opacity:1;" />
<path d="M 195.300781 424 C 195.300781 457.179688 221.929688 484.148438 254.980469 484.691406 C 255.320312 484.699219 255.660156 484.699219 256 484.699219 C 289.132812 484.691406 316.53125 457.558594 316.699219 424.300781 C 316.800781 403.359375 306.289062 384.878906 290.25 373.890625 C 283.671875 369.390625 279.871094 361.820312 279.871094 353.851562 L 279.871094 120.660156 C 279.871094 114.171875 277.242188 108.292969 272.980469 104.042969 C 268.730469 99.792969 262.859375 97.160156 256.371094 97.160156 C 256.25 97.160156 256.121094 97.160156 256 97.171875 C 243.191406 97.363281 232.871094 107.800781 232.871094 120.660156 L 232.871094 353.351562 C 232.871094 361.429688 228.949219 369.070312 222.242188 373.570312 C 206 384.460938 195.300781 402.980469 195.300781 424 Z M 195.300781 424 " style=" stroke:none;fill-rule:nonzero;fill:rgb(51.764706%,76.470588%,96.862745%);fill-opacity:1;" />
<path d="M 222.242188 373.570312 C 228.949219 369.070312 232.871094 361.429688 232.871094 353.351562 L 232.871094 120.660156 C 232.871094 107.800781 243.191406 97.363281 256 97.171875 L 256 484.699219 C 255.660156 484.699219 255.320312 484.699219 254.980469 484.691406 C 221.929688 484.148438 195.300781 457.179688 195.300781 424 C 195.300781 402.980469 206 384.460938 222.242188 373.570312 Z M 222.242188 373.570312 " style=" stroke:none;fill-rule:nonzero;fill:rgb(81.568627%,96.470588%,100%);fill-opacity:1;" />
<path d="M 195.300781 424 C 195.300781 457.179688 221.929688 484.148438 254.980469 484.691406 C 255.320312 484.699219 255.660156 484.699219 256 484.699219 C 289.132812 484.691406 316.53125 457.558594 316.699219 424.300781 C 316.800781 403.359375 306.289062 384.878906 290.25 373.890625 C 283.671875 369.390625 279.871094 361.820312 279.871094 353.851562 L 279.871094 256 C 279.871094 249.511719 277.242188 243.628906 272.980469 239.378906 C 268.730469 235.128906 262.859375 232.5 256.371094 232.5 C 256.25 232.5 256.121094 232.5 256 232.511719 C 243.191406 232.699219 232.871094 243.140625 232.871094 256 L 232.871094 353.351562 C 232.871094 361.429688 228.949219 369.070312 222.242188 373.570312 C 206 384.460938 195.300781 402.980469 195.300781 424 Z M 195.300781 424 " style=" stroke:none;fill-rule:nonzero;fill:rgb(86.666667%,7.058824%,39.607843%);fill-opacity:1;" />
<path d="M 222.242188 373.570312 C 228.949219 369.070312 232.871094 361.429688 232.871094 353.351562 L 232.871094 256 C 232.871094 243.140625 243.191406 232.699219 256 232.511719 L 256 484.699219 C 255.660156 484.699219 255.320312 484.699219 254.980469 484.691406 C 221.929688 484.148438 195.300781 457.179688 195.300781 424 C 195.300781 402.980469 206 384.460938 222.242188 373.570312 Z M 222.242188 373.570312 " style=" stroke:none;fill-rule:nonzero;fill:rgb(100%,20.392157%,27.058824%);fill-opacity:1;" />
<path d="M 226.242188 424.949219 C 226.242188 441.390625 239.5625 454.71875 256 454.71875 C 272.441406 454.71875 285.761719 441.390625 285.761719 424.949219 C 285.761719 408.519531 272.441406 395.191406 256 395.191406 C 239.5625 395.191406 226.242188 408.519531 226.242188 424.949219 Z M 226.242188 424.949219 " style=" stroke:none;fill-rule:nonzero;fill:rgb(72.941176%,5.098039%,36.078431%);fill-opacity:1;" />
<path d="M 226.242188 424.949219 C 226.242188 441.390625 239.5625 454.71875 256 454.71875 L 256 395.191406 C 239.5625 395.191406 226.242188 408.519531 226.242188 424.949219 Z M 226.242188 424.949219 " style=" stroke:none;fill-rule:nonzero;fill:rgb(86.666667%,7.058824%,39.607843%);fill-opacity:1;" />
<path d="M 364.570312 139.5 L 328 139.5 C 324.6875 139.5 322 136.8125 322 133.5 C 322 130.1875 324.6875 127.5 328 127.5 L 364.570312 127.5 C 367.882812 127.5 370.570312 130.1875 370.570312 133.5 C 370.570312 136.8125 367.882812 139.5 364.570312 139.5 Z M 364.570312 139.5 " style=" stroke:none;fill-rule:nonzero;fill:rgb(100%,100%,100%);fill-opacity:1;" />
<path d="M 352.5 172.5 L 328 172.5 C 324.6875 172.5 322 169.8125 322 166.5 C 322 163.1875 324.6875 160.5 328 160.5 L 352.5 160.5 C 355.8125 160.5 358.5 163.1875 358.5 166.5 C 358.5 169.8125 355.8125 172.5 352.5 172.5 Z M 352.5 172.5 " style=" stroke:none;fill-rule:nonzero;fill:rgb(100%,100%,100%);fill-opacity:1;" />
<path d="M 364.570312 205.5 L 328 205.5 C 324.6875 205.5 322 202.8125 322 199.5 C 322 196.1875 324.6875 193.5 328 193.5 L 364.570312 193.5 C 367.882812 193.5 370.570312 196.1875 370.570312 199.5 C 370.570312 202.8125 367.882812 205.5 364.570312 205.5 Z M 364.570312 205.5 " style=" stroke:none;fill-rule:nonzero;fill:rgb(100%,100%,100%);fill-opacity:1;" />
<path d="M 352.5 238.5 L 328 238.5 C 324.6875 238.5 322 235.8125 322 232.5 C 322 229.1875 324.6875 226.5 328 226.5 L 352.5 226.5 C 355.8125 226.5 358.5 229.1875 358.5 232.5 C 358.5 235.8125 355.8125 238.5 352.5 238.5 Z M 352.5 238.5 " style=" stroke:none;fill-rule:nonzero;fill:rgb(100%,100%,100%);fill-opacity:1;" />
<path d="M 364.570312 271.5 L 328 271.5 C 324.6875 271.5 322 268.8125 322 265.5 C 322 262.1875 324.6875 259.5 328 259.5 L 364.570312 259.5 C 367.882812 259.5 370.570312 262.1875 370.570312 265.5 C 370.570312 268.8125 367.882812 271.5 364.570312 271.5 Z M 364.570312 271.5 " style=" stroke:none;fill-rule:nonzero;fill:rgb(100%,100%,100%);fill-opacity:1;" />
<path d="M 352.5 304.5 L 328 304.5 C 324.6875 304.5 322 301.8125 322 298.5 C 322 295.1875 324.6875 292.5 328 292.5 L 352.5 292.5 C 355.8125 292.5 358.5 295.1875 358.5 298.5 C 358.5 301.8125 355.8125 304.5 352.5 304.5 Z M 352.5 304.5 " style=" stroke:none;fill-rule:nonzero;fill:rgb(100%,100%,100%);fill-opacity:1;" />
<path d="M 364.570312 337.5 L 328 337.5 C 324.6875 337.5 322 334.8125 322 331.5 C 322 328.1875 324.6875 325.5 328 325.5 L 364.570312 325.5 C 367.882812 325.5 370.570312 328.1875 370.570312 331.5 C 370.570312 334.8125 367.882812 337.5 364.570312 337.5 Z M 364.570312 337.5 " style=" stroke:none;fill-rule:nonzero;fill:rgb(100%,100%,100%);fill-opacity:1;" />
</g>
</svg>