<?xml version="1.0"?>
<svg xmlns="http://www.w3.org/2000/svg" xmlns:xlink="http://www.w3.org/1999/xlink" xmlns:svgjs="http://svgjs.com/svgjs" version="1.1" width="512" height="512" x="0" y="0" viewBox="0 0 512 512" style="enable-background:new 0 0 512 512" xml:space="preserve" class=""><g><path xmlns="http://www.w3.org/2000/svg" d="m511.914062 256c0-141.386719-114.59375-256-255.957031-256-141.359375 0-255.957031 114.613281-255.957031 256s114.597656 256 255.957031 256c141.363281 0 255.957031-114.613281 255.957031-256zm0 0" fill="#98ecff" data-original="#5ddcf9" style="" class=""/><path xmlns="http://www.w3.org/2000/svg" d="m413.488281 54.222656c33.960938 43.441406 54.210938 98.132813 54.210938 157.554688 0 141.382812-114.597657 256-255.957031 256-59.414063 0-114.09375-20.253906-157.53125-54.222656 46.847656 59.921874 119.796874 98.445312 201.746093 98.445312 141.363281 0 255.957031-114.613281 255.957031-256 0-81.964844-38.515624-154.925781-98.425781-201.777344zm0 0" fill="#badfe7" data-original="#43c5ff" style="" class=""/><path xmlns="http://www.w3.org/2000/svg" d="m257.105469 221.96875c0-36.917969-29.925781-66.851562-66.839844-66.851562-36.917969 0-66.839844 29.933593-66.839844 66.851562 0 36.921875 29.921875 66.851562 66.839844 66.851562 36.914063 0 66.839844-29.929687 66.839844-66.851562zm0 0" fill="#ffe97c" data-original="#f2e49e" style="" class=""/><path xmlns="http://www.w3.org/2000/svg" d="m190.265625 155.117188c-6.800781 0-13.355469 1.023437-19.539063 2.910156 27.382813 8.359375 47.304688 33.820312 47.304688 63.941406s-19.921875 55.585938-47.304688 63.941406c6.179688 1.886719 12.738282 2.910156 19.539063 2.910156 36.914063 0 66.839844-29.929687 66.839844-66.851562s-29.925781-66.851562-66.839844-66.851562zm0 0" fill="#ffcc1b" data-original="#f7c92b" style="" class=""/><path xmlns="http://www.w3.org/2000/svg" d="m335.175781 250.226562c-.019531 0-.035156 0-.054687 0-2.96875.003907-5.714844-1.628906-6.964844-4.328124-12.050781-25.964844-38.347656-43.972657-68.855469-43.972657-32.746093 0-60.640625 20.75-71.273437 49.816407-1.179688 3.226562-4.308594 5.351562-7.730469 5.050781-2.300781-.203125-4.644531-.25-7.023437-.128907-26.496094 1.335938-47.558594 23.546876-47.554688 50.082032.003906 27.6875 22.449219 50.136718 50.132812 50.136718h81.253907 77.191406c29.238281 0 53.699219-23.179687 54.1875-52.417968.5-29.867188-23.558594-54.238282-53.308594-54.238282zm0 0" fill="#fafeff" data-original="#e3faff" style="" class=""/><path xmlns="http://www.w3.org/2000/svg" d="m335.175781 250.226562c-.019531 0-.035156 0-.054687 0-2.96875.003907-5.714844-1.628906-6.96875-4.328124-12.046875-25.964844-38.347656-43.972657-68.851563-43.972657-7.28125 0-14.320312 1.03125-20.988281 2.945313 21.269531 6.105468 38.710938 21.253906 47.886719 41.027344 1.25 2.695312 3.996093 4.332031 6.96875 4.328124h.050781c29.75 0 53.808594 24.371094 53.3125 54.238282-.488281 29.238281-24.949219 52.417968-54.1875 52.417968h41.953125c29.238281 0 53.699219-23.175781 54.1875-52.417968.5-29.867188-23.558594-54.238282-53.308594-54.238282zm0 0" fill="#e3f0f3" data-original="#ccf4ff" style="" class=""/></g></svg>
