<svg id="Layer_1" enable-background="new 0 0 511 511" height="512" viewBox="0 0 511 511" width="512" xmlns="http://www.w3.org/2000/svg"><g><path d="m.5 324.815v156.185l150 17.631v-173.816z" fill="#00ed89"/><path d="m255.5 255.082h75v243.548h-75z" fill="#ffbf80"/><path d="m180.5 255.082h75v243.548h-75z" fill="#ffe666"/><path d="m360.5 151v347.631l150-17.631v-330z" fill="#00a98f"/><path d="m255.5 481h255v30h-255z" fill="#05303d"/><path d="m.5 481h255v30h-255z" fill="#08475e"/><path d="m464.5 0v90h-30v-40.14l-179 133.21v-37.4l155.44-115.67h-36.44v-30z" fill="#d00050"/><path d="m255.5 145.67v37.4l-55.95 41.64.08-104.98-181.51 127.54-17.24-24.54 228.8-160.78-.09 103z" fill="#ff4a4a"/></g></svg>