<svg id="Layer_1" enable-background="new 0 0 510 510" height="512" viewBox="0 0 510 510" width="512" xmlns="http://www.w3.org/2000/svg"><g><path d="m481.615 309.19c0 29.872-6.556 58.241-18.304 83.744 0 0-101.648 81.63-182.506 81.63v-366.174s63.598 62.965 100.405 109.541c26.482 33.511 100.385 88.388 100.385 88.388.013.955.02 1.912.02 2.871z" fill="#69f"/><path d="m280.804 108.39v401.61s-77.974-54.873-113.423-86.287c-41.545-36.816-87.377-114.523-87.377-114.523v-3.05l59.16-139.32 38.197 6.556c27.413-26.466 61.669-60.643 61.669-60.643 13.599-2.871 27.585-4.343 41.774-4.343z" fill="#9cf"/><path d="m481.577 306.319c-1.545-109.404-91.005-197.932-200.77-197.932v86.494c.459 26.466 11.918 47.899 25.982 64.824 21.522 25.899 52.289 36.861 74.31 41.496 20.104 4.231 56.757 5.194 85.948 5.194 5.117.001 10-.029 14.53-.076z" fill="#00a98f"/><path d="m141.356 164.705-2.196 2.12-38.334 90.272h87.077c19.295 0 35.197-14.271 43.646-27.627 8.197-12.962 7.89-27.506 7.593-41.571-.054-2.548-.109-5.183-.109-7.738v-67.418c-36.525 7.711-70.263 25.499-97.677 51.962z" fill="#00ed89"/><path d="m206.398 382.425c-8.49 1.273-18.115-4.458-21.041-12.52-2.142-5.901-1.692-13.23-1.171-21.717.446-7.278.953-15.526-.343-23.912-2.538-16.435-11.745-31.42-25.26-41.113-4.189-3.004-10.709-7.693-64.935-9.164l-13.648 32.142v3.053c0 104.648 80.464 190.856 182.773 200.004 5.941.531 4.454-10.395 10.532-10.395 5.045 0 15.48-7.474 20.433-7.842l2.069-108.702h-88.301z" fill="#00ed89"/><path d="m288.304 496.842c6.076 0 4.592 12.887 10.532 12.356 73.106-6.536 135.051-52.425 164.463-116.269l-10.094-9.525-.576-.446c-35.191-27.275-83.549-36.278-126.2-23.492l-7.19 2.156-30.934 116.15c5.198.405-5.301 19.07-.001 19.07z" fill="#00a98f"/><path d="m415 0c-42.423 0-76.936 34.513-76.936 76.936 0 17.638 11.053 41.582 33.79 73.198 15.775 21.936 31.327 39.317 31.981 40.046l11.165 12.44 11.164-12.441c.654-.729 16.206-18.11 31.981-40.046 22.737-31.616 33.79-55.56 33.79-73.198.001-42.422-34.512-76.935-76.935-76.935zm15 92.419h-30v-30.967h30z" fill="#d00050"/><path d="m95 129.032c-42.423 0-76.936 34.513-76.936 76.936 0 17.638 11.053 41.582 33.79 73.198 15.775 21.936 31.327 39.317 31.981 40.046l11.165 12.44 11.164-12.441c.654-.729 16.206-18.11 31.981-40.046 22.737-31.616 33.79-55.56 33.79-73.198.001-42.422-34.512-76.935-76.935-76.935zm15 92.42h-30v-30.968h30z" fill="#ff4a4a"/><path d="m357.744 403.88c0 17.63-11.06 41.58-33.79 73.19-9.54 13.26-18.99 24.85-25.12 32.11-5.94.53-11.95.82-18.03.82v-183.06c42.43 0 76.94 34.51 76.94 76.94z" fill="#d00050"/><path d="m280.804 326.94v183.06c-6.07 0-12.09-.29-18.03-.82-6.13-7.26-15.58-18.85-25.11-32.11-22.74-31.61-33.79-55.56-33.79-73.19.001-42.43 34.511-76.94 76.93-76.94z" fill="#ff4a4a"/><path d="m280.804 386.61h15v30.97h-15z" fill="#08475e"/><path d="m265.804 386.61h15v30.97h-15z" fill="#0a617d"/></g></svg>