<?xml version="1.0" encoding="UTF-8"?>
<svg xmlns="http://www.w3.org/2000/svg" xmlns:xlink="http://www.w3.org/1999/xlink" xmlns:svgjs="http://svgjs.com/svgjs" version="1.1" width="512" height="512" x="0" y="0" viewBox="0 0 512 512" style="enable-background:new 0 0 512 512" xml:space="preserve" class="">
  <g transform="matrix(1,0,0,1,0,0)">
    <g xmlns="http://www.w3.org/2000/svg">
      <path d="m495.115 201.155c6.707 31.029 7.526 61.348 3.369 90.056h-322.484v-248.894c0-11.074 7.414-20.85 18.131-23.64 35.936-9.355 75.081-10.757 115.444-2.213 83.589 17.694 167.488 101.178 185.54 184.691z" fill="#80d2d5" data-original="#d1462a" style="" class=""/>
      <path d="m379.991 207.327c.475 104.351-84.215 190.11-188.562 190.879-64.109.473-120.937-30.81-155.693-79.054-17.096-23.731-25.406-52.718-23.963-81.931.052-1.057.11-1.963.172-2.677 9.227-105.302 85.069-191.5 185.136-216.203 101.357 3.715 182.445 86.828 182.91 188.986z" fill="#94eff3" data-original="#ea552d" style="" class=""/>
      <path d="m399.976 105.936c-.38 8.068-7.329 14.275-15.406 14.275h-39.576c-8.284 0-15 6.716-15 15 0 8.284-6.716 15-15 15h-129.997c-8.525 0-15.388-7.111-14.983-15.725.38-8.068 7.33-14.275 15.406-14.275h69.575c-8.525 0-15.388-7.111-14.983-15.725.38-8.068 7.33-14.275 15.406-14.275h129.574c8.526 0 15.389 7.111 14.984 15.725z" fill="#ffffff" data-original="#ff956a" style="" class=""/>
      <path d="m269.995 165.211c0 52.467-42.532 95-94.998 95s-94.998-42.533-94.998-95 42.532-95 94.998-95 94.998 42.533 94.998 95z" fill="#f17317" data-original="#ffd993" style="" class=""/>
      <path d="m261.188 125.211c-15.098 32.48-48.015 55-86.192 55s-71.093-22.52-86.192-55c15.098-32.48 48.015-55 86.192-55s71.094 22.519 86.192 55z" fill="#ffaf5b" data-original="#ffe7c0" style="" class=""/>
      <path d="m33.324 340.211c-4.554 0-8.628-2.898-10.054-7.223-7.962-24.15-12.27-49.96-12.27-76.777 0-2.006.024-4.006.072-6h26.885c47.62 0 94.834-8.767 139.28-25.862l178.201-68.54c9.096-3.498 19.337-2.23 27.304 3.381l80.2 56.48c24.641 17.353 49.609 45.67 49.047 74.541-.264 13.571-5.707 29-22.374 40-3.856 2.545-7.216 6.813-9.626 10z" fill="#fbcd83" data-original="#f29500" style="" class=""/>
      <path d="m479.991 340.211h-344.893c-1.777-6.494-7.75-16.3-9.011-23.035-.369-1.971 176.178 2.092 213.906-26.965 13.563-10.446-.972-69.373 20-90 18.659-18.352 53.761-19.182 53.761-19.182l49.189 34.641c24.641 17.353 49.609 45.67 49.047 74.541-.264 13.571-5.707 29-22.374 40-3.855 2.545-7.215 6.812-9.625 10z" fill="#c5964c" data-original="#ffa90b" style="" class=""/>
      <path d="m22.374 330.211 143.748-42.879c15.628-4.662 32.223-5.034 48.045-1.079l164.966 41.243c7.213 1.803 14.619 2.715 22.054 2.715h88.43c-12.103 38.247-33.339 72.433-61.147 100h-344.949c-27.809-27.567-49.044-61.753-61.147-100z" fill="#e3bd78" data-original="#ffb52d" style="" class=""/>
      <path d="m22.374 330.211 143.748-42.879c15.628-4.662 32.223-5.034 48.045-1.079l164.966 41.243c7.213 1.803 14.619 2.715 22.054 2.715h88.43c-12.103 38.247-33.339 72.433-61.147 100h-344.949c-27.809-27.567-49.044-61.753-61.147-100z" fill="#e3bd78" data-original="#ffb52d" style="" class=""/>
      <path d="m401.187 330.211h88.43c-12.103 38.247-33.339 72.433-61.147 100h-137.021c-24.553-56.373-110.861-108.65-115.483-145.226 12.642-2.281 25.664-1.865 38.202 1.269l164.966 41.243c7.212 1.802 14.618 2.714 22.053 2.714z" fill="#cd9b5b" data-original="#ffc14f" style="" class=""/>
      <path d="m438.008 420.211c-44.841 49.736-109.776 81-182.013 81s-137.172-31.264-182.013-81h73.374c28.335 0 56.578-3.217 84.187-9.588 58.125-13.414 118.613-12.744 176.427 1.952z" fill="#f17317" data-original="#ffd993" style="" class=""/>
      <path d="m413.701 443.709c-54.376-.459-108.09 11.998-156.721 36.353-13.651 6.837-27.731 12.75-42.147 17.705-22.505-3.807-43.966-10.684-63.939-20.183l30.377-5.105c25.638-4.309 50.703-11.514 74.716-21.477 50.552-20.976 105.385-29.568 159.93-25.062l15.517 1.282c-5.635 5.781-11.554 11.284-17.733 16.487z" fill="#7aafad" data-original="#ffcd71" style="" class=""/>
      <path d="m277.495 360.211c0 4.142-3.358 7.5-7.5 7.5s-7.5-3.358-7.5-7.5 3.358-7.5 7.5-7.5 7.5 3.358 7.5 7.5zm22.5 2.5c-4.142 0-7.5 3.358-7.5 7.5s3.358 7.5 7.5 7.5 7.5-3.358 7.5-7.5-3.358-7.5-7.5-7.5zm-69.999-50c-4.142 0-7.5 3.358-7.5 7.5s3.358 7.5 7.5 7.5 7.5-3.358 7.5-7.5-3.358-7.5-7.5-7.5zm219.996-30c-4.142 0-7.5 3.358-7.5 7.5s3.358 7.5 7.5 7.5 7.5-3.358 7.5-7.5-3.358-7.5-7.5-7.5zm-79.999-30c-4.142 0-7.5 3.358-7.5 7.5s3.358 7.5 7.5 7.5 7.5-3.358 7.5-7.5-3.358-7.5-7.5-7.5zm20-30c-4.142 0-7.5 3.358-7.5 7.5s3.358 7.5 7.5 7.5 7.5-3.358 7.5-7.5-3.358-7.5-7.5-7.5z" fill="#fbcd83" data-original="#f29500" style="" class=""/>
      <path d="m199.979 235.936c-.38 8.068-7.329 14.275-15.406 14.275h-169.15c-8.077 0-15.026-6.207-15.406-14.275-.406-8.614 6.458-15.725 14.983-15.725h10c8.284 0 15-6.716 15-15 0-8.284 6.716-15 15-15h29.999c8.284 0 15 6.716 15 15 0 8.284 6.716 15 15 15h69.999c8.523 0 15.387 7.111 14.981 15.725z" fill="#ffffff" data-original="#ffad8c" style="" class=""/>
    </g>
  </g>
</svg>
