<svg id="Capa_1" enable-background="new 0 0 512 512" height="512" viewBox="0 0 512 512" width="512" xmlns="http://www.w3.org/2000/svg"><g><path d="m500.7 180.58-27.76 37.71c-113.55 154.3-338.03 170.79-472.91 34.75.5-45.11 12.68-87.41 33.65-124.04 44.12-77.07 127.16-129 222.32-129s178.2 51.93 222.32 129c9.26 16.17 16.8 33.45 22.38 51.58z" fill="#92eaff"/><g><path d="m500.7 180.58-27.76 37.71c-113.55 154.3-338.03 170.79-472.91 34.75.5-45.11 12.68-87.41 33.65-124.04 44.12 77.07 127.16 129 222.32 129s178.2-51.93 222.32-129c9.26 16.17 16.81 33.45 22.38 51.58z" fill="#63dbfa"/></g><g><g><g><path d="m512 256c0 14.91-1.28 29.53-3.73 43.74-1.22 7.12-2.74 14.14-4.55 21.04-6.7 25.74-17.32 49.91-31.18 71.82l-8.2 4.54c-14.5 8.02-29.41 14.89-44.6 20.61h-237.8c-37.27-14-72.43-34.76-103.59-62.05l-76.24-66.78c-.64-4.91-1.14-9.87-1.48-14.86-.42-5.96-.63-11.99-.63-18.06v-2.95c.01 0 .02-.01.03-.01 10.86-5.09 23.99-5.11 34.87-.05 10.89 5.07 20.85 14.93 23.95 26.54 9.23-10.65 34.08-11.9 41.3.2 1.01-13.09 10.96-25 23.66-28.33 12.69-3.33 29.8 1.45 37.1 12.36 7.34-12.86 21.33-21.66 36.09-22.72 14.77-1.05 28.14 2.05 37.23 13.73 4.62-9.51 12.41-17.41 21.77-22.3.26-.14.53-.27.79-.41 2.18-1.09 4.43-2.02 6.75-2.77 3.84-1.24 7.91-1.97 12.04-2.19 9.49-.55 19.31 1.5 27.48 5.89-4.03-21.69 10.42-45.25 31.58-51.48 21.16-6.24 47.13 6.69 55.49 27.1 18.67-12.45 43.17-12.74 58.67 3.49 6.37-15.48 20.76-27.39 37.15-30.76 4.85-1 9.83-1.24 14.75-.76 2.25 7.29 4.18 14.73 5.77 22.28.15.72.3 1.43.44 2.15 3.18 15.69 4.92 31.89 5.08 48.47.01.84.01 1.68.01 2.52z" fill="#fff"/></g><path d="m512 256c0 14.91-1.28 29.53-3.73 43.74-1.22 7.12-2.74 14.14-4.55 21.04-6.7 25.74-17.32 49.91-31.18 71.82l-8.2 4.54c-14.5 8.02-29.41 14.89-44.6 20.61h-162.95v-185.69c2.18-1.09 4.43-2.02 6.75-2.77 3.84-1.24 7.91-1.97 12.04-2.19 9.49-.55 19.31 1.5 27.48 5.89-4.03-21.69 10.42-45.25 31.58-51.48 21.16-6.24 47.13 6.69 55.49 27.1 18.67-12.45 43.17-12.74 58.67 3.49 6.37-15.48 20.76-27.39 37.15-30.76 4.85-1 9.83-1.24 14.75-.76 2.25 7.29 4.18 14.73 5.77 22.28.15.72.3 1.43.44 2.15 3.18 15.69 4.92 31.89 5.08 48.47.01.84.01 1.68.01 2.52z" fill="#dff7fd"/><path d="m512 256c0 14.91-1.28 29.53-3.73 43.74-1.22 7.12-2.74 14.14-4.55 21.04-6.7 25.74-17.32 49.91-31.18 71.82l-8.2 4.54c-14.5 8.02-29.41 14.89-44.6 20.61h-237.8c-37.27-14-72.43-34.76-103.59-62.05l-76.24-66.78-2.11 2.96v-9.85c.43-.03.87-.06 1.3-.08 9.03-.42 18.35 2.39 25.89 7.5 11.67 7.9 19.44 20.57 23.95 33.91 6.25-8.2 15.99-14.14 26.29-14.64 10.3-.51 20.73 3.74 27.75 11.29-.39-13.84 10.42-28.78 23.51-33.3s28.85.37 37.08 11.51c2.79-13.68 14.16-24.75 27.97-26.81 13.81-2.07 28.54 5.27 35.21 17.54 5.57-3.78 13.76-4.22 20.41-3.19-.68-7.22 2.09-14.75 6.64-20.62.26-.33.52-.65.79-.97.89-1.08 1.85-2.09 2.86-3.03 6.62-6.15 16.18-9.01 25.09-7.49 6.44 1.09 12.91 4.88 15.01 11.06 7.87-8.93 19.87-14.4 31.77-14.67-3.13-8.56-1.3-19.15 4.83-25.89 6.14-6.75 16.12-9.72 24.94-7.42 8.83 2.31 16.09 9.78 18.14 18.66 4.63 1.16 10.66 2.27 15.28 3.43 5.01-11 18.14-18 30.13-16.39s22.43 10.22 27.72 21.09c5.87-5.83 15.34-9.05 23.57-9.83 2.22-12.59 3.89-17.53 14.58-24.54 3.81-2.5 10.03-4.14 16.2-4.14 3.18 15.69 4.92 31.89 5.08 48.47.01.84.01 1.68.01 2.52z" fill="#dff7fd"/><path d="m512 256c0 14.91-1.28 29.53-3.73 43.74-1.22 7.12-2.74 14.14-4.55 21.04-6.7 25.74-17.32 49.91-31.18 71.82l-8.2 4.54c-14.5 8.02-29.41 14.89-44.6 20.61h-39.13l13.18 13.18h-137v-166.76c.89-1.08 1.85-2.09 2.86-3.03 6.62-6.15 16.18-9.01 25.09-7.49 6.44 1.09 12.91 4.88 15.01 11.06 7.87-8.93 19.87-14.4 31.77-14.67-3.13-8.56-1.3-19.15 4.83-25.89 6.14-6.75 16.12-9.72 24.94-7.42 8.83 2.31 16.09 9.78 18.14 18.66 4.63 1.16 10.66 2.27 15.28 3.43 5.01-11 18.14-18 30.13-16.39s22.43 10.22 27.72 21.09c5.87-5.83 15.34-9.05 23.57-9.83 2.22-12.59 3.89-17.53 14.58-24.54 3.81-2.5 10.03-4.14 16.2-4.14 3.18 15.69 4.92 31.89 5.08 48.47.01.84.01 1.68.01 2.52z" fill="#c5f2f9"/></g><g><path d="m445.11 428.55c-2.2 2.41-4.44 4.78-6.73 7.1-1.14 1.16-2.3 2.31-3.46 3.43-1.18 1.16-2.36 2.3-3.56 3.42-1.98 1.87-3.99 3.69-6.03 5.49l-7.27 3.09c-7.32 3.11-13.3 8.7-16.89 15.8-.01 0-.01.01-.01.01-6.1 4.21-12.4 8.15-18.87 11.82-2.34-3.52-7.67-2.94-9.2 1l-1.92 4.97c-30.15 15.23-63.72 24.65-99.25 26.83-5.27.33-10.57.49-15.92.49-2.01 0-4.01-.02-6.01-.08-4.02-.08-8.01-.27-11.98-.55-8.59-.59-17.07-1.61-25.41-3.05-7.42-1.25-14.74-2.83-21.93-4.73-4.63-1.22-9.21-2.56-13.73-4.04-15.68-5.08-30.69-11.64-44.88-19.51-24.46-13.55-46.46-30.99-65.17-51.49z" fill="#92eaff"/><path d="m445.11 428.55c-6.24 6.83-12.84 13.32-19.78 19.44l-7.27 3.09c-7.32 3.11-13.31 8.71-16.9 15.81-6.1 4.21-12.39 8.15-18.86 11.83-2.34-3.53-7.68-2.95-9.21.99l-1.92 4.97c-5.63 2.84-11.37 5.48-17.22 7.9-4.2 1.75-8.46 3.38-12.77 4.9-6.1 2.15-12.3 4.08-18.6 5.77-7.69 2.07-15.53 3.79-23.5 5.13-13.75 2.34-27.88 3.57-42.29 3.62v-83.45z" fill="#63dbfa"/></g><path d="m8.27 320.78c.64 2.45 1.32 4.88 2.02 7.29.36 1.23.73 2.45 1.11 3.67 2.8 9.05 6.08 17.88 9.83 26.46l43.353 59.694h368.281l-157.214-157.214s-9.3 9.31-18.86 18.89c-10.04 10.05-20.37 20.37-20.54 20.5-6.91 5.17-16.57 4.48-22.67-1.62l-110.5-110.5-100.97 100.97c.45 3.63 1 7.24 1.62 10.82 1.22 7.12 2.74 14.14 4.54 21.04z" fill="#7e7f92"/><path d="m432.864 417.894-157.214-157.214s-9.3 9.31-18.86 18.89v138.324z" fill="#6e6f83"/><path d="m21.23 358.2 43.353 59.694h320.952l-109.885-109.884s-9.3 9.31-18.86 18.89c-10.04 10.05-20.37 20.37-20.54 20.5-6.91 5.17-16.57 4.48-22.67-1.62l-110.5-110.5-92.79 92.79c.36 1.23.73 2.45 1.11 3.67 2.8 9.05 6.08 17.88 9.83 26.46z" fill="#6e6f83"/><path d="m385.534 417.894-109.884-109.884s-9.3 9.31-18.86 18.89v90.994z" fill="#605f74"/><path d="m472.54 392.6c-3.77 5.97-7.79 11.78-12.04 17.4-1.97 2.63-4 5.21-6.07 7.75-1.2 1.48-2.42 2.94-3.66 4.39-1.85 2.17-3.74 4.31-5.66 6.41-.73.8-1.46 1.59-2.2 2.38h-373.82c-.74-.79-1.47-1.58-2.2-2.38-1.92-2.1-3.81-4.24-5.65-6.41-1.24-1.45-2.46-2.91-3.66-4.39-6.92-8.46-13.3-17.38-19.09-26.7-3.07-4.92-5.97-9.96-8.7-15.11-3.08-5.78-5.93-11.7-8.56-17.74 6.1 6.38 10.09 14.26 19.97 16.52 11.4 2.62 22.02-2.21 33.13 4.05 7.38 4.15 14.57 9.68 23.12 11.13 3.8.64 8.87.73 12.56-.51 4.39-1.46 7.86-5.16 12.39-6.68 4.49-1.51 9.74-1.52 13.67 1.12 4.17 2.8 6.27 8.07 10.66 10.51 5.33 2.96 11.97.74 17.47-1.91s11.43-5.78 17.37-4.41c7.47 1.72 11.58 9.68 17.93 13.97 6.46 4.38 15.52 4.54 22.13.38 7.42-4.66 14.57-9.73 22.62-6.25 4.15 1.8 8.24 5.2 12.54 4.6.34-.05.69-.12 1.03-.22 4.78-1.4 6.39-7.17 9.21-11.27 5.05-7.34 16.18-9.61 23.7-4.82 3.51 2.24 6.49 5.04 10.31 6.72 3.81 1.68 8.42 2.08 12.05.04 3.24-1.82 5.19-5.22 7.72-7.94 4.38-4.72 10.83-7.47 17.27-7.35 6.45.11 12.79 3.08 17.01 7.95 6.02 6.96 16.61 9.54 23.95 3.99 5.13-3.88 8.6-10.93 15.01-11.51 6-.54 10.88 5.1 16.85 5.88 7.08.93 13.46-5.11 20.59-5.01 5.56.08 12.05 4.31 15.31 8.7 3.71 5.01 6.02 7.49 13.1 7.02 4.22-.28 8.59-1.26 12.64-.3z" fill="#5dbf1d"/><path d="m472.54 392.6c-5.53 8.75-11.58 17.15-18.11 25.15-3 3.69-6.11 7.29-9.32 10.8-.73.8-1.46 1.59-2.2 2.38h-186.12v-30.21c.34-.05.69-.12 1.03-.22 4.78-1.4 6.39-7.17 9.21-11.27 5.05-7.34 16.18-9.61 23.7-4.82 3.51 2.24 6.49 5.04 10.31 6.72 3.81 1.68 8.42 2.08 12.05.04 3.24-1.82 5.19-5.22 7.72-7.94 4.38-4.72 10.83-7.47 17.27-7.35 6.45.11 12.79 3.08 17.01 7.95 6.02 6.96 16.61 9.54 23.95 3.99 5.13-3.88 8.6-10.93 15.01-11.51 6-.54 10.88 5.1 16.85 5.88 7.08.93 13.46-5.11 20.59-5.01 5.56.08 12.05 4.31 15.31 8.7 3.71 5.01 6.02 7.49 13.1 7.02 4.22-.28 8.59-1.26 12.64-.3z" fill="#43af3e"/><path d="m460.5 410c-1.97 2.63-4 5.21-6.07 7.75-1.2 1.48-2.42 2.94-3.66 4.39-1.85 2.17-3.74 4.31-5.66 6.41-.73.8-1.46 1.59-2.2 2.38h-373.82c-.74-.79-1.47-1.58-2.2-2.38-1.92-2.1-3.81-4.24-5.65-6.41-1.24-1.45-2.46-2.91-3.66-4.39-6.92-8.46-13.3-17.38-19.09-26.7.85.33 1.75.6 2.71.82 11.4 2.62 22.02-2.21 33.13 4.05 7.38 4.15 14.57 9.68 23.12 11.13 3.8.65 8.87.73 12.56-.5 4.39-1.47 7.86-5.17 12.39-6.69 4.49-1.51 9.74-1.52 13.67 1.12 4.17 2.8 6.27 8.07 10.66 10.51 5.33 2.96 11.97.74 17.47-1.91s11.43-5.77 17.37-4.41c7.47 1.72 11.58 9.68 17.93 13.98 6.46 4.37 15.52 4.53 22.13.38 7.42-4.67 14.57-9.74 22.62-6.26 4.15 1.8 8.24 5.2 12.54 4.6.34-.05.69-.12 1.03-.22 4.78-1.4 6.39-7.17 9.21-11.27 5.05-7.34 16.18-9.61 23.7-4.82 3.51 2.24 6.49 5.04 10.31 6.72 3.81 1.68 8.42 2.09 12.05.04 3.24-1.82 5.19-5.22 7.72-7.94 4.38-4.72 10.83-7.46 17.27-7.35 6.45.12 12.79 3.08 17.01 7.96 6.02 6.95 16.61 9.53 23.95 3.99 5.13-3.89 8.6-10.94 15.01-11.52 6-.54 10.88 5.1 16.85 5.88 7.08.93 13.46-5.11 20.59-5.01 5.56.09 12.05 4.31 15.31 8.7 3.71 5.01 6.02 7.49 13.1 7.02.2-.01.4-.03.6-.05z" fill="#43af3e"/><path d="m460.5 410c-1.97 2.63-4 5.21-6.07 7.75-1.2 1.48-2.42 2.94-3.66 4.39-1.85 2.17-3.74 4.31-5.66 6.41-.73.8-1.46 1.59-2.2 2.38h-186.12v-13.06c.34-.05.69-.12 1.03-.22 4.78-1.4 6.39-7.17 9.21-11.27 5.05-7.34 16.18-9.61 23.7-4.82 3.51 2.24 6.49 5.04 10.31 6.72 3.81 1.68 8.42 2.09 12.05.04 3.24-1.82 5.19-5.22 7.72-7.94 4.38-4.72 10.83-7.46 17.27-7.35 6.45.12 12.79 3.08 17.01 7.96 6.02 6.95 16.61 9.53 23.95 3.99 5.13-3.89 8.6-10.94 15.01-11.52 6-.54 10.88 5.1 16.85 5.88 7.08.93 13.46-5.11 20.59-5.01 5.56.09 12.05 4.31 15.31 8.7 3.71 5.01 6.02 7.49 13.1 7.02.2-.01.4-.03.6-.05z" fill="#00a23e"/><g><g><path d="m76.173 380.125h7.574v45.751h-7.574z" fill="#ec771b"/></g><path d="m79.96 380.125h3.787v45.751h-3.787z" fill="#c55732"/><path d="m76.173 380.125h3.787v31.476h-3.787z" fill="#c55732"/><path d="m79.96 380.125h3.787v31.476h-3.787z" fill="#a44e3e"/><g><path d="m108.373 391.66c.078 7.773-6.458 14.132-14.228 14.132h-28.367c-7.773 0-14.306-6.359-14.231-14.132.041-3.849 1.632-7.326 4.185-9.832 1.209-1.191 1.828-2.864 1.722-4.561-.019-.292-.028-.591-.028-.889 0-4.729 2.344-8.911 5.939-11.442 1.614-1.138 2.606-2.963 2.606-4.938v-.23c0-7.727 6.262-13.992 13.989-13.992.081 0 .159.003.239.003 3.837.062 7.273 1.701 9.754 4.278 2.478 2.581 3.999 6.104 3.999 9.94 0 1.974.992 3.8 2.605 4.938 3.591 2.531 5.939 6.713 5.939 11.442 0 .298-.009.597-.028.889-.109 1.698.51 3.371 1.723 4.561 2.549 2.508 4.144 5.984 4.182 9.833z" fill="#b6e337"/></g><g><g><path d="m108.373 391.66c.078 7.773-6.458 14.132-14.228 14.132h-20.898c-3.678 0-6.772-6.359-6.735-14.132.019-3.849.771-7.326 1.981-9.832.572-1.191.864-2.864.815-4.561-.009-.292-.013-.591-.013-.889 0-4.729 1.11-8.911 2.811-11.442.762-1.138 1.231-2.963 1.231-4.938v-.23c0-7.727 2.966-13.992 6.623-13.992.037 0 .075.003.112.003h.128c3.837.062 7.273 1.701 9.754 4.278 2.478 2.581 3.999 6.104 3.999 9.94 0 1.974.992 3.8 2.606 4.938 3.591 2.531 5.939 6.713 5.939 11.442 0 .298-.009.597-.028.889-.109 1.698.51 3.371 1.723 4.561 2.547 2.508 4.142 5.984 4.18 9.833z" fill="#6cdc2d"/></g></g><path d="m108.373 391.66c.078 7.773-6.458 14.132-14.228 14.132h-14.185v-60.016c.081 0 .159.003.239.003 3.837.062 7.273 1.701 9.754 4.278 2.478 2.581 3.999 6.104 3.999 9.94 0 1.974.992 3.8 2.605 4.938 3.591 2.531 5.939 6.713 5.939 11.442 0 .298-.009.597-.028.889-.109 1.698.51 3.371 1.723 4.561 2.549 2.508 4.144 5.984 4.182 9.833z" fill="#5dbf1d"/></g><g><g><path d="m165.5 385.078h6.754v40.797h-6.754z" fill="#ec771b"/></g><path d="m168.877 385.078h3.377v40.797h-3.377z" fill="#c55732"/><path d="m165.5 385.078h3.377v28.068h-3.377z" fill="#c55732"/><path d="m168.877 385.078h3.377v28.068h-3.377z" fill="#a44e3e"/><g><path d="m194.213 395.365c.069 6.932-5.759 12.602-12.688 12.602h-25.295c-6.932 0-12.757-5.67-12.691-12.602.036-3.433 1.456-6.532 3.732-8.767 1.079-1.062 1.63-2.554 1.536-4.068-.017-.261-.025-.527-.025-.793 0-4.217 2.091-7.946 5.296-10.203 1.439-1.015 2.324-2.642 2.324-4.403v-.205c0-6.89 5.584-12.477 12.474-12.477.072 0 .141.003.213.003 3.422.056 6.485 1.517 8.698 3.815 2.21 2.301 3.566 5.443 3.566 8.864 0 1.761.885 3.388 2.324 4.403 3.202 2.257 5.296 5.986 5.296 10.203 0 .266-.008.532-.025.793-.097 1.514.455 3.006 1.536 4.068 2.274 2.234 3.696 5.334 3.729 8.767z" fill="#b6e337"/></g><g><g><path d="m194.213 395.365c.069 6.932-5.759 12.602-12.688 12.602h-18.635c-3.28 0-6.039-5.67-6.006-12.602.017-3.433.688-6.532 1.766-8.767.51-1.062.771-2.554.727-4.068-.008-.261-.011-.527-.011-.793 0-4.217.99-7.946 2.507-10.203.679-1.015 1.098-2.642 1.098-4.403v-.205c0-6.89 2.645-12.477 5.906-12.477.033 0 .067.003.1.003h.114c3.422.056 6.485 1.517 8.698 3.815 2.21 2.301 3.566 5.443 3.566 8.864 0 1.761.885 3.388 2.324 4.403 3.202 2.257 5.296 5.986 5.296 10.203 0 .266-.008.532-.025.793-.097 1.514.455 3.006 1.536 4.068 2.272 2.234 3.694 5.334 3.727 8.767z" fill="#6cdc2d"/></g></g><path d="m194.213 395.365c.069 6.932-5.759 12.602-12.688 12.602h-12.649v-53.518c.072 0 .141.003.213.003 3.422.056 6.485 1.517 8.698 3.815 2.21 2.301 3.566 5.443 3.566 8.864 0 1.761.885 3.388 2.324 4.403 3.202 2.257 5.296 5.986 5.296 10.203 0 .266-.008.532-.025.793-.097 1.514.455 3.006 1.536 4.068 2.274 2.234 3.696 5.334 3.729 8.767z" fill="#5dbf1d"/></g><g><g><path d="m358.453 385.078h6.754v40.797h-6.754z" fill="#ec771b"/></g><path d="m361.83 385.078h3.377v40.797h-3.377z" fill="#c55732"/><path d="m358.453 385.078h3.377v28.068h-3.377z" fill="#c55732"/><path d="m361.83 385.078h3.377v28.068h-3.377z" fill="#a44e3e"/><g><path d="m387.166 395.365c.069 6.932-5.759 12.602-12.688 12.602h-25.295c-6.932 0-12.757-5.67-12.69-12.602.036-3.433 1.456-6.532 3.732-8.767 1.078-1.062 1.63-2.554 1.536-4.068-.017-.261-.025-.527-.025-.793 0-4.217 2.091-7.946 5.296-10.203 1.439-1.015 2.324-2.642 2.324-4.403v-.205c0-6.89 5.584-12.477 12.474-12.477.072 0 .141.003.214.003 3.421.056 6.485 1.517 8.698 3.815 2.21 2.301 3.566 5.443 3.566 8.864 0 1.761.884 3.388 2.323 4.403 3.202 2.257 5.296 5.986 5.296 10.203 0 .266-.008.532-.025.793-.097 1.514.455 3.006 1.536 4.068 2.272 2.234 3.695 5.334 3.728 8.767z" fill="#b6e337"/></g><g><g><path d="m387.166 395.365c.069 6.932-5.759 12.602-12.688 12.602h-18.635c-3.28 0-6.039-5.67-6.006-12.602.017-3.433.688-6.532 1.766-8.767.51-1.062.771-2.554.726-4.068-.008-.261-.011-.527-.011-.793 0-4.217.99-7.946 2.507-10.203.679-1.015 1.098-2.642 1.098-4.403v-.205c0-6.89 2.645-12.477 5.906-12.477.033 0 .066.003.1.003h.114c3.421.056 6.485 1.517 8.698 3.815 2.21 2.301 3.566 5.443 3.566 8.864 0 1.761.884 3.388 2.323 4.403 3.202 2.257 5.296 5.986 5.296 10.203 0 .266-.008.532-.025.793-.097 1.514.455 3.006 1.536 4.068 2.273 2.234 3.696 5.334 3.729 8.767z" fill="#6cdc2d"/></g></g><path d="m387.166 395.365c.069 6.932-5.759 12.602-12.688 12.602h-12.649v-53.518c.072 0 .141.003.214.003 3.421.056 6.485 1.517 8.698 3.815 2.21 2.301 3.566 5.443 3.566 8.864 0 1.761.884 3.388 2.323 4.403 3.202 2.257 5.296 5.986 5.296 10.203 0 .266-.008.532-.025.793-.097 1.514.455 3.006 1.536 4.068 2.273 2.234 3.696 5.334 3.729 8.767z" fill="#5dbf1d"/></g><g><g><path d="m133.977 392.904h5.459v32.972h-5.459z" fill="#ec771b"/></g><path d="m136.706 392.904h2.729v32.972h-2.729z" fill="#c55732"/><path d="m133.977 392.904h2.729v22.684h-2.729z" fill="#c55732"/><path d="m136.706 392.904h2.729v22.684h-2.729z" fill="#a44e3e"/><g><path d="m157.182 401.217c.056 5.602-4.654 10.185-10.254 10.185h-20.443c-5.602 0-10.31-4.583-10.256-10.185.029-2.774 1.176-5.279 3.016-7.086.872-.858 1.318-2.064 1.241-3.287-.013-.211-.02-.426-.02-.641 0-3.408 1.69-6.422 4.28-8.246 1.163-.82 1.878-2.135 1.878-3.559v-.166c0-5.568 4.513-10.084 10.082-10.084.058 0 .114.002.173.002 2.765.045 5.241 1.226 7.029 3.083 1.786 1.86 2.882 4.399 2.882 7.164 0 1.423.715 2.738 1.878 3.559 2.588 1.824 4.28 4.838 4.28 8.246 0 .215-.007.43-.02.641-.079 1.223.367 2.429 1.241 3.287 1.837 1.808 2.986 4.313 3.013 7.087z" fill="#b6e337"/></g><g><g><path d="m157.182 401.217c.056 5.602-4.654 10.185-10.254 10.185h-15.061c-2.651 0-4.881-4.583-4.854-10.185.013-2.774.556-5.279 1.427-7.086.412-.858.623-2.064.587-3.287-.007-.211-.009-.426-.009-.641 0-3.408.8-6.422 2.026-8.246.549-.82.887-2.135.887-3.559v-.166c0-5.568 2.138-10.084 4.773-10.084.027 0 .054.002.081.002h.092c2.765.045 5.241 1.226 7.029 3.083 1.786 1.86 2.882 4.399 2.882 7.164 0 1.423.715 2.738 1.878 3.559 2.588 1.824 4.28 4.838 4.28 8.246 0 .215-.007.43-.02.641-.079 1.223.367 2.429 1.241 3.287 1.839 1.808 2.988 4.313 3.015 7.087z" fill="#6cdc2d"/></g></g><path d="m157.182 401.217c.056 5.602-4.654 10.185-10.254 10.185h-10.223v-43.253c.058 0 .114.002.173.002 2.765.045 5.241 1.226 7.029 3.083 1.786 1.86 2.882 4.399 2.882 7.164 0 1.423.715 2.738 1.878 3.559 2.588 1.824 4.28 4.838 4.28 8.246 0 .215-.007.43-.02.641-.079 1.223.367 2.429 1.241 3.287 1.838 1.807 2.987 4.312 3.014 7.086z" fill="#5dbf1d"/></g><g><g><path d="m323.908 392.904h5.459v32.972h-5.459z" fill="#ec771b"/></g><path d="m326.637 392.904h2.729v32.972h-2.729z" fill="#c55732"/><path d="m323.908 392.904h2.729v22.684h-2.729z" fill="#c55732"/><path d="m326.637 392.904h2.729v22.684h-2.729z" fill="#a44e3e"/><g><path d="m347.114 401.217c.056 5.602-4.654 10.185-10.254 10.185h-20.443c-5.602 0-10.31-4.583-10.256-10.185.029-2.774 1.177-5.279 3.016-7.086.872-.858 1.318-2.064 1.241-3.287-.013-.211-.02-.426-.02-.641 0-3.408 1.69-6.422 4.28-8.246 1.163-.82 1.878-2.135 1.878-3.559v-.166c0-5.568 4.513-10.084 10.081-10.084.058 0 .114.002.173.002 2.765.045 5.241 1.226 7.029 3.083 1.786 1.86 2.882 4.399 2.882 7.164 0 1.423.715 2.738 1.878 3.559 2.588 1.824 4.28 4.838 4.28 8.246 0 .215-.007.43-.02.641-.078 1.223.367 2.429 1.241 3.287 1.837 1.808 2.987 4.313 3.014 7.087z" fill="#b6e337"/></g><g><g><path d="m347.114 401.217c.056 5.602-4.654 10.185-10.254 10.185h-15.061c-2.651 0-4.881-4.583-4.854-10.185.013-2.774.556-5.279 1.427-7.086.412-.858.623-2.064.587-3.287-.007-.211-.009-.426-.009-.641 0-3.408.8-6.422 2.026-8.246.549-.82.887-2.135.887-3.559v-.166c0-5.568 2.138-10.084 4.773-10.084.027 0 .054.002.081.002h.092c2.765.045 5.241 1.226 7.029 3.083 1.786 1.86 2.882 4.399 2.882 7.164 0 1.423.715 2.738 1.878 3.559 2.588 1.824 4.28 4.838 4.28 8.246 0 .215-.007.43-.02.641-.078 1.223.367 2.429 1.241 3.287 1.838 1.808 2.988 4.313 3.015 7.087z" fill="#6cdc2d"/></g></g><path d="m347.114 401.217c.056 5.602-4.654 10.185-10.254 10.185h-10.223v-43.253c.058 0 .114.002.173.002 2.765.045 5.241 1.226 7.029 3.083 1.786 1.86 2.882 4.399 2.882 7.164 0 1.423.715 2.738 1.878 3.559 2.588 1.824 4.28 4.838 4.28 8.246 0 .215-.007.43-.02.641-.078 1.223.367 2.429 1.241 3.287 1.837 1.807 2.987 4.312 3.014 7.086z" fill="#5dbf1d"/></g><g><g><g><path d="m221.235 455.898h11.126v28.835h-11.126z" fill="#d85e39"/><path d="m226.798 455.898h5.563v28.835h-5.563z" fill="#c94d31"/><path d="m251.222 455.898h11.126v28.835h-11.126z" fill="#d85e39"/><path d="m256.786 455.898h5.563v28.835h-5.563z" fill="#c94d31"/><path d="m281.21 455.898h11.126v28.835h-11.126z" fill="#d85e39"/><path d="m286.773 455.898h5.563v28.835h-5.563z" fill="#c94d31"/><path d="m311.198 455.898h11.126v28.835h-11.126z" fill="#d85e39"/><path d="m316.761 455.898h5.563v28.835h-5.563z" fill="#c94d31"/><path d="m341.186 455.898h11.126v28.835h-11.126z" fill="#d85e39"/><path d="m346.749 455.898h5.563v28.835h-5.563z" fill="#c94d31"/></g><g><path d="m382.3 455.9v22.82c-1.84 1.05-3.69 2.07-5.56 3.07-1.84.99-3.7 1.95-5.57 2.89v-28.78z" fill="#d85e39"/><path d="m382.3 455.9v22.82c-1.84 1.05-3.69 2.07-5.56 3.07v-25.89z" fill="#c94d31"/><path d="m412.29 455.9v2.86c-3.63 2.81-7.34 5.52-11.13 8.13v-10.99z" fill="#d85e39"/><path d="m412.29 455.9v2.86c-1.84 1.42-3.69 2.82-5.57 4.18v-7.04z" fill="#c94d31"/></g><g><path d="m212.859 452.472v6.845h-15.813c-3.683 0-6.681 2.999-6.681 6.695v18.72h-6.846v-18.72c0-7.461 6.065-13.54 13.527-13.54z" fill="#6e6f83"/><path d="m212.859 455.895v3.423h-15.813c-3.683 0-6.681 2.999-6.681 6.695v18.72h-3.423v-18.72c0-5.586 4.518-10.118 10.104-10.118z" fill="#605f74"/><g><path d="m223.375 435.651h6.845v20.247h-6.845z" fill="#6e6f83"/><path d="m226.798 435.651h3.423v20.247h-3.423z" fill="#605f74"/></g><g><path d="m253.363 435.651h6.845v20.247h-6.845z" fill="#6e6f83"/><path d="m256.786 435.651h3.423v20.247h-3.423z" fill="#605f74"/></g><g><path d="m283.351 435.651h6.845v20.247h-6.845z" fill="#6e6f83"/><path d="m286.773 435.651h3.423v20.247h-3.423z" fill="#605f74"/></g><g><path d="m313.338 435.651h6.845v20.247h-6.845z" fill="#6e6f83"/><path d="m316.761 435.651h3.423v20.247h-3.423z" fill="#605f74"/></g><g><path d="m343.326 435.651h6.845v20.247h-6.845z" fill="#6e6f83"/><path d="m346.749 435.651h3.423v20.247h-3.423z" fill="#605f74"/></g><g><path d="m373.314 435.651h6.845v20.247h-6.845z" fill="#6e6f83"/><path d="m376.737 435.651h3.423v20.247h-3.423z" fill="#605f74"/></g><g><path d="m403.302 435.651h6.845v20.247h-6.845z" fill="#6e6f83"/><path d="m406.724 435.651h3.423v20.247h-3.423z" fill="#605f74"/></g><path d="m425.33 447.99c-6.33 5.6-12.94 10.88-19.81 15.82h-199.78c-4.37 0-7.9-3.54-7.9-7.91 0-2.19.88-4.17 2.31-5.6s3.41-2.31 5.59-2.31z" fill="#f99568"/><path d="m415.94 455.9c-3.4 2.72-6.88 5.36-10.42 7.91h-199.78c-4.37 0-7.9-3.54-7.9-7.91z" fill="#ed784a"/></g></g><path d="m244.01 496.41c0 1.67-1.35 3.02-3.02 3.02h-5.95c-.74 0-1.41.3-1.9.79-.48.48-.78 1.15-.78 1.89 0 1.48 1.2 2.68 2.68 2.68h.19c1.07 0 2.04.43 2.74 1.14.71.7 1.14 1.67 1.14 2.74 0 1.05-.41 2.01-1.1 2.7-8.59-.59-17.07-1.61-25.41-3.05.21-2.17 2.04-3.87 4.26-3.87h1.08c1.48 0 2.68-1.2 2.68-2.68v-1.14c0-1.48-1.2-2.68-2.68-2.68h-1.48c-.86 0-1.65-.35-2.22-.92s-.92-1.35-.92-2.22.35-1.65.92-2.22 1.36-.92 2.22-.92c2.64 0 4.77-2.13 4.77-4.77v-2.17h11.13v3.88c0 2.64 2.14 4.78 4.78 4.78h3.85c1.67 0 3.02 1.35 3.02 3.02z" fill="#63dbfa"/><path d="m333.97 496.41c0 1.67-1.35 3.02-3.02 3.02h-5.94c-.75 0-1.42.3-1.9.79-.49.48-.79 1.15-.79 1.89 0 .41.09.8.26 1.14-7.69 2.07-15.53 3.79-23.5 5.13.17-2.2 2.02-3.93 4.26-3.93h4.56c1.49 0 2.69-1.2 2.69-2.68v-1.14c0-1.48-1.2-2.68-2.69-2.68h-1.48c-.86 0-1.65-.35-2.22-.92s-.92-1.35-.92-2.22.35-1.65.92-2.22 1.36-.92 2.22-.92c2.64 0 4.78-2.13 4.78-4.77v-2.17h11.12v3.88c0 2.64 2.14 4.78 4.78 4.78h3.85c1.67 0 3.02 1.35 3.02 3.02z" fill="#3dcaea"/><path d="m274.48 507.59c0 1.18-.48 2.25-1.25 3.03-.37.37-.8.68-1.3.88l-.01.01c-.34.02-.69.04-1.03.06-.18.01-.36.02-.54.03-.98.06-1.97.11-2.95.15-.31.01-.62.03-.93.04-1.42.06-2.85.1-4.28.13-.73.02-1.46.04-2.19.05-1.07.02-2.14.03-3.21.02-.26.01-.53.01-.79.01-2.01 0-4.01-.02-6.01-.08-.47-.32-1.02-.51-1.63-.51h-3.47c-2.14 0-3.88-1.73-3.88-3.88 0-1.07.43-2.04 1.14-2.74.7-.71 1.67-1.14 2.74-1.14h.94c2.98 0 5.39-2.41 5.39-5.39v-13.53h11.13v2.17c0 2.64 2.14 4.77 4.78 4.77.87 0 1.65.35 2.21.92.57.57.92 1.35.92 2.22s-.35 1.65-.92 2.22c-.56.57-1.34.92-2.21.92h-1.49c-1.48 0-2.68 1.2-2.68 2.68 0 .74.3 1.41.78 1.89.49.49 1.16.79 1.9.79h4.57c2.36 0 4.27 1.92 4.27 4.28z" fill="#63dbfa"/><path d="m278.343 499.764c1.58 0 2.862 1.281 2.862 2.862v1.421c0 3.074 2.492 5.565 5.565 5.565 3.074 0 5.565-2.492 5.565-5.565v-19.313h-11.131v4.399c0 1.585-1.285 2.869-2.869 2.869h-1.606c-1.068 0-2.04.438-2.738 1.137-.883.882-1.35 2.203-1.042 3.601.398 1.808 2.113 3.026 3.964 3.026h1.43z" fill="#3dcaea"/><path d="m353.95 492.58c-4.2 1.75-8.46 3.38-12.77 4.9v-12.75h11.13v5.26c0 1.14.67 2.13 1.64 2.59z" fill="#3dcaea"/><path d="m198.54 499.71v.18c0 1.35-1.09 2.44-2.43 2.44h-3.08c-.79 0-1.49.32-2.01.83-.13.13-.25.28-.35.43-4.63-1.22-9.21-2.56-13.73-4.04.26-1.15 1.29-2 2.51-2h1.93c.58 0 1.11-.23 1.49-.62.39-.38.62-.91.62-1.49 0-1.16-.94-2.11-2.11-2.11h-.96c-.7 0-1.33-.28-1.79-.74-.46-.45-.74-1.09-.74-1.78 0-1.39 1.13-2.52 2.53-2.52h.58c1.39 0 2.52-1.13 2.52-2.53v-1.03h6.85v.53c0 1.32 1.06 2.38 2.38 2.38h.88c.67 0 1.28.27 1.72.71.44.45.71 1.05.71 1.73 0 1.34-1.09 2.43-2.43 2.43h-1.05c-.66 0-1.26.27-1.69.69-.43.44-.7 1.03-.7 1.69 0 1.32 1.07 2.39 2.39 2.39h3.53c1.34 0 2.43 1.09 2.43 2.43z" fill="#63dbfa"/><g><path d="m438.38 435.65c-1.14 1.16-2.3 2.31-3.46 3.43-1.18 1.16-2.36 2.3-3.56 3.42h-212.44c-.94 0-1.8-.38-2.42-1s-1.01-1.48-1.01-2.42c0-1.89 1.54-3.43 3.43-3.43z" fill="#6e6f83"/><path d="m434.92 439.08c-1.18 1.16-2.36 2.3-3.56 3.42h-212.44c-.94 0-1.8-.38-2.42-1s-1.01-1.48-1.01-2.42z" fill="#605f74"/></g><path d="m245.817 490.865-5.56.137c-1.339 0-2.425-1.086-2.425-2.425 0-1.339 1.086-2.425 2.425-2.425l5.56-.137c1.339 0 2.425 1.086 2.425 2.425 0 1.339-1.086 2.425-2.425 2.425z" fill="#92eaff"/><g fill="#fff"><path d="m303.88 490.046-6.839.137c-1.339 0-2.425-1.086-2.425-2.425 0-1.339 1.086-2.425 2.425-2.425l6.839-.137c1.339 0 2.425 1.086 2.425 2.425 0 1.339-1.086 2.425-2.425 2.425z"/><path d="m331.833 489.484-3.56.137c-1.339 0-2.425-1.086-2.425-2.425 0-1.339 1.086-2.425 2.425-2.425l3.56-.137c1.339 0 2.425 1.086 2.425 2.425 0 1.339-1.086 2.425-2.425 2.425z"/></g></g><path d="m450.77 422.14c-1.85 2.17-3.74 4.31-5.66 6.41-.73.8-1.46 1.59-2.2 2.38h-373.82c-.74-.79-1.47-1.58-2.2-2.38-1.92-2.1-3.81-4.24-5.65-6.41z" fill="#00a23e"/><path d="m450.77 422.14c-1.85 2.17-3.74 4.31-5.66 6.41-.73.8-1.46 1.59-2.2 2.38h-186.12v-8.79z" fill="#008839"/><g><path d="m192.376 103.4c0-.063.005-.124.005-.187 0-11.447-9.28-20.727-20.727-20.727-2.719 0-5.314.529-7.693 1.481-4.596-8.234-13.391-13.805-23.49-13.805-13.116 0-24.032 9.393-26.405 21.817-.707-.101-1.43-.157-2.165-.157-7.131 0-13.105 4.936-14.702 11.577h95.177z" fill="#fff"/><path d="m172.153 103.4c0-.036.003-.071.003-.107 0-6.582-5.336-11.918-11.918-11.918-1.564 0-3.056.304-4.424.852-2.643-4.735-7.7-7.938-13.507-7.938-7.542 0-13.819 5.401-15.183 12.545-.407-.058-.822-.09-1.245-.09-4.101 0-7.536 2.839-8.454 6.657h54.728z" fill="#dff7fd"/></g><g><path d="m294.035 144.107c-.001-.088-.006-.174-.006-.262 0-16.038 13.001-29.039 29.038-29.039 3.81 0 7.445.741 10.779 2.075 6.439-11.536 18.76-19.341 32.91-19.341 18.375 0 33.669 13.159 36.993 30.566.991-.142 2.003-.22 3.033-.22 9.991 0 18.361 6.916 20.598 16.22h-133.345z" fill="#fff"/><path d="m322.368 144.107c0-.05-.004-.1-.004-.151 0-9.222 7.476-16.698 16.698-16.698 2.191 0 4.281.426 6.198 1.193 3.703-6.634 10.788-11.122 18.924-11.122 10.566 0 19.36 7.567 21.272 17.576.57-.082 1.152-.126 1.744-.126 5.745 0 10.558 3.977 11.845 9.327h-76.677z" fill="#dff7fd"/></g></g><path d="m274.48 507.59c0 1.18-.48 2.25-1.25 3.03-.37.37-.8.68-1.3.88-.34.03-.69.05-1.04.07-.18.01-.36.02-.54.03-.98.06-1.97.11-2.95.15-.31.01-.62.03-.93.04-1.42.06-2.85.1-4.28.13-.73.02-1.46.04-2.19.05-1.07.02-2.14.03-3.21.03v-27.27h5.56v2.17c0 2.64 2.14 4.77 4.78 4.77.87 0 1.65.35 2.21.92.57.57.92 1.35.92 2.22s-.35 1.65-.92 2.22c-.56.57-1.34.92-2.21.92h-1.49c-1.48 0-2.68 1.2-2.68 2.68 0 .74.3 1.41.78 1.89.49.49 1.16.79 1.9.79h4.57c2.36 0 4.27 1.92 4.27 4.28z" fill="#3dcaea"/></g></svg>