<svg id="Layer_1" enable-background="new 0 0 510 510" height="512" viewBox="0 0 510 510" width="512" xmlns="http://www.w3.org/2000/svg"><g><path d="m510 268.318v240h-215v-12.1l78.16-157.36-52.68-14.25 19.1-70.29z" fill="#08475e"/><path d="m295 496.218v12.1h-295v-240l256-14-30.6 138.371 53.98-7.491 13.58 115.13z" fill="#0a617d"/><path d="m225.4 85.318-91.08 14.741-17.324-93.014z" fill="#d00050"/><path d="m134.32 100.059-96.48 15.619 79.156-108.633z" fill="#ff4a4a"/><path d="m254.76 250.669-29.52 5.299-.48-2.65h-61.9l-28.54-153.259 91.08-14.741z" fill="#d9ac8d"/><path d="m162.86 253.318h-87.44l-14.81 2.411-22.77-140.051 96.48-15.619z" fill="#ffe0ba"/><path d="m375.13 178.578-22.91 87.03-14.62-3.85 23.18-86.96z" fill="#bc8372"/><path d="m360.78 174.798-23.18 86.96-9.124-23.44 17.644-67.379z" fill="#d9ac8d"/><path d="m435.55 184.758-7.49 28.44-72.43-19.08 28.34-106.28 22 5.79z" fill="#00a98f"/><path d="m383.97 87.838-28.34 106.28-72.62-19.119 7.49-28.44 70.62-64.741z" fill="#00ed89"/><path d="m441.38 103.729-7.45 28.279-57.69-15.19 30.671-115.136z" fill="#00ed89"/><path d="m406.911 1.682-30.671 115.136-58.36-15.359 7.45-28.29z" fill="#a5ffb4"/><path d="m403.29 313.318-88.63 195h-19.66v-30h.34l61.37-135h-56.23l20-75h31.04l-12 45z" fill="#05303d"/><path d="m295 373.318v135h-30v-105h-59.38l35-135h30.99l-27.23 105z" fill="#08475e"/><path d="m271.607 268.318 7.778-30h-279.385v30h240.615z" fill="#00ed89"/><path d="m328.476 238.318-8 30h31.048 158.476v-30z" fill="#00a98f"/></g></svg>